<?xml version="1.0" standalone="no"?>
<!DOCTYPE svg PUBLIC "-//W3C//DTD SVG 20010904//EN"
 "http://www.w3.org/TR/2001/REC-SVG-20010904/DTD/svg10.dtd">
<svg version="1.0" xmlns="http://www.w3.org/2000/svg"
 width="485.000000pt" height="485.000000pt" viewBox="0 0 485.000000 485.000000"
 preserveAspectRatio="xMidYMid meet">
<metadata>
Created by potrace 1.14, written by Peter Selinger 2001-2017
</metadata>
<g transform="translate(0.000000,485.000000) scale(0.100000,-0.100000)"
fill="#000000" stroke="none">
<path d="M1080 3926 c0 -7 24 -26 54 -40 39 -19 63 -40 85 -74 17 -26 117
-263 222 -527 105 -264 195 -484 200 -490 6 -5 13 -5 19 1 7 7 228 609 306
834 5 13 6 13 14 0 4 -8 60 -152 123 -320 179 -474 198 -520 211 -520 15 0 10
-11 186 435 78 198 161 401 185 450 48 101 106 173 171 211 84 49 68 54 -177
54 -199 0 -220 -2 -217 -16 2 -11 22 -23 53 -31 102 -30 143 -87 126 -176 -8
-47 -232 -627 -241 -627 -3 0 -78 190 -166 423 -128 336 -165 422 -179 422
-17 0 -96 -207 -280 -732 -22 -62 -43 -113 -46 -113 -12 0 -269 690 -269 724
0 56 27 76 120 89 21 3 40 16 40 28 0 5 -108 9 -270 9 -223 0 -270 -2 -270
-14z m334 -34 c-27 -19 -42 -55 -38 -93 3 -22 74 -219 158 -437 l152 -397 -15
-47 c-8 -27 -17 -48 -20 -48 -3 0 -26 51 -50 113 -121 310 -295 747 -312 783
-10 23 -34 63 -54 88 l-35 46 113 0 c61 0 107 -4 101 -8z m1317 -38 c-23 -26
-41 -52 -41 -58 0 -6 -10 8 -21 32 -12 23 -33 49 -48 57 -24 13 -20 14 62 15
l89 0 -41 -46z m-527 -484 l153 -404 -14 -43 c-8 -24 -18 -45 -23 -48 -4 -2
-43 91 -87 208 -44 116 -115 304 -158 416 l-78 204 18 56 c15 47 19 53 27 36
4 -11 77 -202 162 -425z"/>
<path d="M3591 3041 c-44 -56 -87 -147 -102 -216 l-12 -60 -80 -48 c-55 -33
-77 -42 -72 -30 34 84 48 210 26 237 -20 23 -36 20 -64 -14 -38 -45 -69 -152
-70 -245 l-1 -80 -51 -45 c-142 -128 -275 -274 -275 -303 0 -18 70 43 199 170
74 73 137 133 140 133 4 0 14 -12 23 -28 60 -101 193 -165 242 -116 14 14 13
20 -8 62 -39 76 -102 129 -160 134 -20 2 -23 5 -14 16 17 20 170 112 179 107
4 -3 10 -18 14 -35 7 -34 67 -128 114 -183 55 -62 111 -46 111 30 0 57 -92
168 -163 198 -29 12 -29 13 -10 23 14 8 158 52 169 52 0 0 12 -21 25 -47 29
-59 131 -163 183 -187 30 -14 44 -16 62 -7 61 28 5 140 -109 216 l-50 34 49 3
c40 2 62 -3 115 -30 52 -27 81 -35 145 -39 71 -5 81 -3 102 16 27 27 28 45 1
72 -48 48 -162 65 -236 34 -23 -10 -49 -13 -67 -9 -16 3 -48 6 -70 6 l-41 0
34 26 c76 59 132 118 141 150 13 47 -6 50 -86 13 -70 -33 -161 -116 -185 -169
-11 -25 -24 -33 -95 -54 l-83 -25 30 44 c38 55 77 139 82 178 9 65 -37 74 -82
16z m354 -49 c-51 -49 -135 -106 -135 -92 0 5 4 10 8 10 5 0 28 20 53 44 38
38 92 76 109 76 3 0 -13 -17 -35 -38z m-326 -30 c-11 -26 -29 -58 -40 -72 -13
-17 -10 -5 11 40 16 36 30 71 30 78 0 7 4 11 9 7 6 -3 1 -26 -10 -53z m-59
-51 c-28 -54 -50 -106 -50 -115 0 -9 -4 -16 -10 -16 -9 0 27 110 47 143 27 47
54 87 58 87 2 0 -18 -45 -45 -99z m320 75 c0 -3 -15 -14 -32 -26 l-33 -22 30
26 c31 27 35 29 35 22z m-600 -202 c-11 -44 -23 -92 -26 -109 -7 -36 -23 -57
-18 -23 13 95 29 167 41 191 24 48 25 24 3 -59z m49 21 c-11 -53 -50 -157 -56
-151 -2 2 6 44 18 92 19 80 26 110 28 124 1 2 5 0 10 -5 6 -6 6 -29 0 -60z
m877 20 c17 -13 15 -13 -21 -4 -49 14 -56 19 -24 19 14 0 34 -7 45 -15z m-161
-4 c22 -5 65 -13 95 -16 61 -8 100 -23 65 -26 -62 -5 -85 -3 -132 13 -92 30
-108 47 -28 29z m-107 -129 c31 -30 52 -71 45 -89 -4 -10 -10 -6 -20 16 -8 16
-40 58 -71 93 -54 59 -55 61 -17 33 22 -16 50 -40 63 -53z m-41 -27 c61 -58
67 -73 18 -44 -38 23 -125 114 -125 132 0 11 23 -8 107 -88z m-284 -7 c18 -18
43 -47 55 -65 22 -30 29 -64 15 -62 -8 0 -114 159 -107 159 2 0 19 -15 37 -32z
m-7 -66 c53 -74 57 -82 45 -82 -6 0 -28 26 -49 58 -51 76 -55 82 -45 82 4 0
26 -26 49 -58z m-201 -82 c17 -16 39 -44 50 -62 16 -28 9 -24 -45 25 -35 33
-74 64 -87 70 -12 5 -23 14 -23 19 0 15 74 -22 105 -52z m11 -88 c-8 -8 -62
28 -92 60 -62 68 -57 70 18 8 43 -35 76 -66 74 -68z"/>
<path d="M2150 2542 c-19 -14 -92 -84 -163 -154 -70 -70 -131 -128 -135 -128
-4 0 -16 14 -26 31 -57 96 -193 161 -240 114 -12 -13 -13 -20 -3 -44 33 -78
113 -151 165 -151 40 0 21 -22 -67 -77 -84 -53 -101 -57 -101 -24 0 22 -64
127 -113 186 -59 70 -117 59 -117 -22 0 -57 92 -168 163 -198 29 -12 29 -13
10 -23 -15 -8 -158 -52 -169 -52 -1 0 -12 21 -25 48 -28 57 -130 161 -183 186
-31 15 -43 16 -63 7 -23 -10 -25 -16 -20 -52 3 -25 18 -56 42 -84 36 -45 112
-103 137 -107 7 -1 -16 -4 -52 -7 -49 -5 -69 -2 -80 8 -31 30 -106 54 -181 59
-70 4 -78 2 -97 -19 -12 -12 -22 -29 -22 -37 0 -22 44 -58 86 -72 42 -14 168
-8 188 9 8 7 39 8 87 3 l74 -7 -55 -41 c-95 -72 -139 -132 -120 -164 7 -11 17
-10 54 4 75 29 137 78 193 151 50 66 54 69 127 90 66 19 74 20 66 5 -5 -9 -15
-22 -23 -28 -19 -16 -75 -141 -77 -172 -4 -51 -1 -60 24 -60 46 0 125 127 153
245 14 59 23 77 43 87 14 7 49 28 79 47 43 27 53 30 46 15 -49 -120 -49 -254
0 -254 47 0 108 155 109 279 l1 74 60 56 c166 155 279 281 264 296 -3 2 -20
-8 -39 -23z m-397 -281 c44 -27 47 -32 8 -21 -56 16 -97 50 -137 115 -15 24
-7 20 36 -20 30 -28 72 -61 93 -74z m-43 97 c18 -13 49 -43 69 -68 36 -45 29
-42 -44 22 -16 14 -41 35 -55 47 -34 28 -11 27 30 -1z m-226 -135 c25 -37 43
-69 41 -72 -3 -2 -6 -2 -8 0 -2 2 -17 22 -34 44 -49 65 -66 95 -54 95 6 0 31
-30 55 -67z m-28 -33 c49 -76 50 -78 19 -54 -52 39 -108 136 -77 133 4 0 30
-36 58 -79z m-257 -114 l46 -50 -40 29 c-70 51 -121 116 -108 138 3 5 16 -9
30 -30 14 -21 46 -60 72 -87z m17 64 c33 -28 78 -89 72 -96 -6 -5 -158 139
-158 150 0 9 46 -19 86 -54z m628 8 c-16 -110 -27 -165 -40 -190 -21 -41 -34
-34 -18 11 7 22 16 50 18 63 6 27 26 108 32 126 6 20 11 14 8 -10z m-44 -49
c-11 -47 -12 -48 -30 -121 -12 -47 -33 -59 -25 -15 3 12 7 36 10 52 4 17 10
39 15 50 4 11 14 35 20 53 17 45 23 34 10 -19z m-767 -99 c32 -12 57 -23 55
-25 -3 -3 -75 8 -197 30 -24 5 -31 9 -21 15 21 13 100 3 163 -20z m518 -82
c-17 -40 -42 -86 -56 -103 -19 -23 -15 -12 16 50 22 44 45 98 52 120 6 22 13
33 15 23 2 -9 -11 -49 -27 -90z m-606 47 c6 -2 -4 -4 -21 -4 -16 -1 -39 6 -50
14 -17 13 -15 13 21 4 22 -6 45 -12 50 -14z m560 -62 c-8 -16 -23 -49 -34 -75
-11 -27 -23 -48 -26 -48 -7 0 31 97 50 126 21 32 27 31 10 -3z m-273 -38 c-64
-58 -115 -96 -120 -90 -3 2 1 12 9 22 18 21 142 113 147 108 2 -2 -14 -20 -36
-40z m23 -15 c-3 -5 -20 -19 -38 -30 -32 -22 -32 -22 3 9 37 32 45 37 35 21z"/>
<path d="M2523 2078 c-5 -7 -87 -209 -182 -448 -187 -472 -229 -555 -309 -613
-26 -19 -55 -37 -65 -40 -10 -4 -17 -14 -15 -24 3 -15 24 -17 203 -17 110 -1
208 0 218 3 31 6 19 36 -13 33 -18 -1 -117 58 -133 79 -43 60 -34 96 121 488
89 226 102 252 111 230 6 -13 38 -96 72 -184 33 -88 85 -223 115 -300 29 -77
71 -185 92 -240 45 -118 65 -129 92 -55 9 25 19 52 22 60 3 8 13 35 21 60 9
25 31 88 50 140 102 277 187 519 187 529 0 39 27 -20 120 -262 138 -361 160
-423 160 -458 0 -43 -40 -76 -103 -86 -34 -5 -52 -13 -52 -22 0 -12 41 -15
245 -15 135 -1 255 1 268 3 36 6 25 27 -23 45 -88 34 -99 57 -341 668 -128
323 -173 428 -186 428 -10 0 -22 -16 -32 -47 -38 -112 -290 -803 -292 -800 -1
1 -72 189 -159 417 -86 228 -162 421 -169 428 -10 11 -15 11 -23 0z m312 -956
c-12 -39 -20 -51 -25 -41 -4 8 -54 136 -110 284 -56 149 -126 332 -155 409
-43 110 -52 143 -44 162 33 85 18 113 191 -340 l161 -419 -18 -55z m398 811
c62 -164 319 -808 337 -843 11 -22 34 -55 50 -74 17 -18 30 -35 30 -38 0 -2
-49 -3 -109 -3 l-108 0 22 30 c39 52 45 32 -188 640 l-104 270 16 43 c8 23 18
42 22 42 4 0 18 -30 32 -67z m-1013 -933 l29 -26 -82 2 c-100 2 -96 1 -70 19
12 8 31 31 44 51 l22 36 14 -28 c8 -16 28 -40 43 -54z"/>
</g>
</svg>
