<?xml version="1.0" standalone="no"?>
<!DOCTYPE svg PUBLIC "-//W3C//DTD SVG 20010904//EN"
 "http://www.w3.org/TR/2001/REC-SVG-20010904/DTD/svg10.dtd">
<svg version="1.0" xmlns="http://www.w3.org/2000/svg"
 width="497.000000pt" height="497.000000pt" viewBox="0 0 497.000000 497.000000"
 preserveAspectRatio="xMidYMid meet">
<metadata>
Created by potrace 1.14, written by Peter Selinger 2001-2017
</metadata>
<g transform="translate(0.000000,497.000000) scale(0.100000,-0.100000)"
fill="#000000" stroke="none">
<path d="M1030 3805 c0 -8 21 -23 46 -35 54 -23 85 -55 120 -125 13 -27 107
-257 207 -510 125 -314 187 -460 197 -460 13 0 77 167 308 809 8 21 16 35 18
33 3 -2 13 -26 23 -53 90 -240 146 -387 183 -484 25 -63 62 -159 82 -212 21
-54 43 -98 50 -98 8 0 82 172 181 423 92 232 186 457 207 500 42 81 128 172
174 183 15 4 24 13 24 25 0 18 -11 19 -221 19 -199 0 -220 -2 -217 -16 2 -10
22 -23 53 -31 118 -35 151 -97 117 -218 -26 -91 -230 -586 -237 -575 -4 7 -78
197 -165 424 -125 327 -161 411 -175 411 -14 0 -32 -39 -82 -180 -186 -519
-235 -651 -242 -658 -10 -10 -271 675 -271 713 0 60 32 85 114 93 27 3 40 9
42 20 2 15 -22 17 -267 17 -229 0 -269 -2 -269 -15z m322 -45 c-46 -43 -37
-78 131 -518 l153 -398 -15 -47 c-8 -26 -17 -47 -20 -47 -3 0 -20 37 -38 83
-165 423 -328 826 -349 860 -15 23 -36 52 -47 65 l-20 22 113 0 114 0 -22 -20z
m1329 -26 c-23 -26 -41 -52 -41 -58 0 -6 -10 8 -21 32 -12 23 -33 49 -48 57
-24 13 -20 14 62 15 l89 0 -41 -46z m-560 -399 c61 -159 127 -335 148 -390 38
-98 38 -101 23 -140 -8 -22 -18 -43 -21 -47 -4 -5 -78 179 -166 408 l-158 417
18 54 18 54 14 -33 c8 -18 64 -163 124 -323z"/>
<path d="M3374 3388 c-38 -46 -92 -162 -106 -228 -11 -55 -11 -55 -90 -102
-53 -31 -77 -41 -73 -30 35 83 48 209 25 236 -19 24 -37 19 -65 -19 -40 -51
-67 -147 -68 -240 -1 -68 -5 -83 -23 -100 -12 -11 -63 -58 -114 -105 -95 -88
-197 -206 -187 -217 12 -11 63 32 196 164 73 73 136 133 140 133 3 0 20 -21
36 -46 50 -76 146 -126 209 -110 13 3 26 12 29 19 7 18 -31 90 -68 129 -34 36
-101 69 -123 60 -27 -10 -3 16 41 46 23 16 63 41 90 55 l48 27 9 -26 c6 -14
10 -29 10 -33 0 -17 84 -138 120 -173 40 -39 62 -42 88 -10 43 55 -48 203
-151 247 -29 12 -29 13 -10 23 15 9 158 52 170 52 1 0 11 -19 22 -43 38 -84
153 -190 220 -203 37 -8 56 22 46 74 -8 41 -98 137 -155 165 l-35 17 67 0 c55
0 74 -4 103 -24 69 -47 219 -62 255 -26 11 11 20 27 20 35 0 23 -46 62 -87 76
-42 13 -166 7 -186 -10 -9 -7 -37 -8 -88 -3 l-74 7 55 41 c74 56 109 94 119
132 13 42 0 48 -57 27 -83 -31 -151 -89 -208 -175 -23 -35 -36 -43 -98 -61
-39 -12 -75 -24 -80 -27 -11 -6 0 12 30 53 30 40 72 132 77 170 9 61 -35 74
-79 23z m370 -39 c-23 -26 -110 -91 -144 -108 -22 -11 -21 -9 5 12 17 14 48
42 70 62 33 31 64 51 84 54 2 1 -4 -9 -15 -20z m-348 -52 c-9 -23 -25 -53 -36
-67 -14 -18 -10 -3 13 51 33 78 52 91 23 16z m-42 -14 c-20 -37 -45 -90 -55
-117 -15 -40 -18 -44 -13 -16 7 41 47 132 76 172 33 47 30 32 -8 -39z m311 47
c-3 -5 -20 -19 -38 -30 -32 -22 -32 -22 3 9 37 32 45 37 35 21z m-615 -240
c-29 -104 -30 -104 -25 -43 5 56 24 126 42 156 17 28 10 -16 -17 -113z m56 45
c-14 -64 -46 -149 -53 -142 -2 3 5 45 17 93 29 121 31 127 40 118 5 -5 3 -36
-4 -69z m857 41 c15 -4 27 -11 27 -16 0 -10 -59 7 -75 22 -6 6 -5 7 5 4 8 -2
27 -7 43 -10z m-78 -26 c44 -6 89 -14 100 -17 l20 -6 -20 -8 c-31 -12 -115 1
-170 27 -27 13 -41 22 -30 20 11 -3 56 -10 100 -16z m-188 -98 c46 -44 78 -98
63 -107 -5 -3 -16 7 -24 23 -8 16 -39 56 -68 87 -58 63 -39 61 29 -3z m-17
-49 c14 -16 32 -37 40 -48 15 -18 14 -18 -19 1 -35 20 -131 119 -131 135 0 12
76 -49 110 -88z m-264 -25 c44 -53 69 -110 47 -107 -5 0 -32 36 -60 80 -38 58
-46 75 -30 64 13 -8 32 -25 43 -37z m-31 -41 c43 -59 57 -87 46 -87 -10 0 -30
26 -74 97 -34 54 -12 46 28 -10z m-239 -55 c24 -13 66 -58 90 -97 15 -24 7
-20 -36 20 -30 28 -72 61 -92 74 -21 12 -38 24 -38 26 0 5 54 -11 76 -23z m13
-83 c46 -41 47 -48 3 -25 -26 14 -72 59 -103 101 -15 21 18 -4 100 -76z"/>
<path d="M2260 2384 c-24 -19 -97 -88 -162 -154 -65 -66 -122 -120 -126 -120
-4 0 -15 12 -24 28 -59 100 -193 165 -242 117 -17 -17 -13 -33 20 -85 43 -68
95 -108 148 -112 13 -1 22 -6 20 -10 -7 -11 -81 -61 -137 -91 -43 -25 -48 -25
-53 -9 -29 85 -133 234 -173 245 -29 7 -61 -27 -61 -66 0 -60 90 -171 163
-202 28 -12 29 -13 11 -23 -19 -10 -114 -39 -152 -47 -17 -3 -25 6 -43 43 -28
57 -130 161 -183 186 -30 14 -44 16 -62 7 -66 -30 12 -166 132 -230 l35 -19
-60 -4 c-40 -2 -67 2 -78 10 -63 48 -219 78 -268 52 -81 -44 4 -130 129 -131
29 -1 69 6 91 15 24 11 50 14 69 10 16 -3 48 -6 70 -6 l41 1 -40 -32 c-80 -63
-126 -113 -135 -145 -12 -46 6 -50 75 -18 73 33 135 85 180 151 34 49 44 56
104 75 36 12 72 24 80 27 7 3 -1 -15 -18 -41 -59 -85 -89 -166 -82 -223 0 -7
12 -13 25 -13 47 0 123 123 154 248 l17 68 79 47 c47 29 76 41 72 32 -31 -82
-48 -188 -35 -222 39 -102 138 65 142 240 l2 82 60 55 c154 140 278 280 263
295 -2 2 -23 -12 -48 -31z m-379 -279 c37 -20 37 -26 0 -15 -56 16 -97 50
-137 115 -14 22 -3 15 44 -28 35 -31 77 -64 93 -72z m-33 89 c23 -19 52 -49
64 -67 19 -28 14 -25 -37 18 -97 82 -101 85 -84 85 9 0 34 -16 57 -36z m-244
-121 c42 -65 52 -91 24 -62 -13 13 -64 86 -82 117 -4 6 -2 12 4 12 5 0 30 -30
54 -67z m-49 -5 c17 -28 41 -65 55 -81 l25 -31 -28 18 c-50 34 -120 147 -89
146 4 0 21 -24 37 -52z m-231 -147 l51 -54 -43 32 c-58 45 -102 90 -112 115
-14 38 2 38 27 -1 14 -21 49 -62 77 -92z m-15 92 c48 -39 61 -52 88 -91 30
-43 8 -31 -58 31 -103 97 -121 133 -30 60z m626 -5 c-2 -7 -14 -53 -25 -103
-29 -121 -30 -125 -40 -125 -16 0 12 123 45 203 14 34 30 53 20 25z m20 -71
c-13 -87 -37 -157 -54 -157 -7 0 -7 8 -1 23 5 12 19 60 30 107 26 102 28 110
33 110 2 0 -2 -37 -8 -83z m-848 -71 c33 -7 113 -47 82 -41 -14 2 -44 7 -65
10 -21 3 -64 11 -94 17 -44 8 -51 12 -35 19 19 8 60 6 112 -5z m563 -98 c-17
-41 -42 -87 -55 -104 -17 -19 -8 4 25 72 28 56 51 112 51 125 2 22 2 23 6 3 2
-12 -10 -55 -27 -96z m-619 44 c-17 -6 -61 7 -61 17 0 5 16 4 36 -2 20 -6 31
-13 25 -15z m557 -99 c-37 -83 -57 -107 -29 -35 19 48 49 102 57 102 1 0 -11
-30 -28 -67z m-244 13 c-21 -19 -54 -48 -72 -64 -18 -17 -43 -32 -54 -35 -18
-5 -17 -2 8 24 27 29 139 109 152 109 3 0 -12 -15 -34 -34z m16 -20 c0 -3 -15
-14 -32 -26 l-33 -22 30 26 c31 27 35 29 35 22z"/>
<path d="M3356 2315 c-9 -9 -16 -21 -16 -26 0 -8 -226 -641 -264 -739 -8 -19
-18 -45 -22 -57 -10 -24 -2 -43 -238 577 -74 195 -96 245 -111 245 -14 0 -43
-64 -142 -315 -68 -173 -128 -324 -133 -335 -5 -11 -23 -56 -40 -100 -77 -195
-147 -298 -232 -338 -22 -11 -38 -25 -38 -35 0 -16 18 -17 212 -15 251 2 228
0 228 16 0 7 -25 21 -55 31 -69 22 -121 65 -129 109 -3 18 0 57 8 88 16 60
222 589 235 602 5 5 11 -2 14 -15 9 -33 315 -829 322 -836 18 -18 49 63 302
773 14 39 28 73 32 77 3 4 41 -86 84 -200 44 -114 83 -216 88 -227 21 -48 72
-184 85 -225 31 -100 6 -143 -89 -155 -53 -7 -70 -22 -40 -35 10 -4 425 -5
506 -1 32 2 14 32 -26 46 -81 28 -105 69 -242 415 -200 506 -268 675 -275 683
-4 5 -15 1 -24 -8z m-574 -270 c36 -93 104 -273 153 -400 l87 -229 -17 -55
c-12 -37 -20 -50 -25 -40 -4 8 -71 183 -149 389 -78 206 -148 390 -157 408
-13 30 -12 37 8 84 17 41 23 47 29 32 4 -11 36 -95 71 -189z m757 -218 c189
-479 208 -521 249 -569 18 -19 32 -37 32 -39 0 -2 -49 -4 -110 -5 l-110 0 22
23 c14 16 21 35 21 65 0 44 -12 78 -206 582 l-104 270 16 47 c9 26 19 45 23
41 3 -4 79 -190 167 -415z m-1189 -534 c0 -9 15 -30 33 -47 l33 -31 -82 0
c-76 -1 -81 1 -70 17 6 10 14 18 18 18 3 0 16 16 28 35 21 35 40 38 40 8z"/>
</g>
</svg>
